<svg width="243" height="223" viewBox="0 0 243 223" fill="none" xmlns="http://www.w3.org/2000/svg">
<path d="M69.2719 197.385L55.8709 214.603L45.547 206.568L46.9866 204.718L55.2255 211.131L59.7536 205.313L52.2881 199.503L53.7277 197.653L61.1931 203.464L67.1869 195.763L69.2719 197.385Z" fill="white"/>
<path d="M39.0874 176.307L31.293 182.036L29.804 180.01L42.9892 170.319L44.4782 172.345L42.2463 173.985L42.3473 174.123C43.244 173.94 44.1667 174.002 45.1155 174.309C46.0586 174.621 46.896 175.275 47.6279 176.27C48.2336 177.095 48.5917 177.96 48.7023 178.865C48.8071 179.776 48.6279 180.683 48.1646 181.588C47.6955 182.497 46.9002 183.363 45.7785 184.188L37.4004 190.345L35.9114 188.32L44.1522 182.263C45.1136 181.556 45.6828 180.723 45.8597 179.765C46.0323 178.801 45.8095 177.898 45.1912 177.057C44.8211 176.553 44.3159 176.135 43.6756 175.804C43.0311 175.467 42.3123 175.316 41.5193 175.353C40.7221 175.383 39.9115 175.701 39.0874 176.307Z" fill="white"/>
<path d="M13.8847 159.733L34.3177 152.083L35.1993 154.437L14.7663 162.087L13.8847 159.733Z" fill="white"/>
<path d="M7.38391 129.148L29.1276 127.346L29.3352 129.851L7.59153 131.653L7.38391 129.148Z" fill="white"/>
<path d="M26.4906 67.6014C25.4696 67.228 24.4878 67.3122 23.545 67.854C22.6022 68.3957 21.8325 69.2559 21.2361 70.4346C20.7999 71.2965 20.5577 72.1211 20.5094 72.9086C20.4644 73.6898 20.5944 74.3844 20.8996 74.9925C21.2079 75.5944 21.6726 76.0524 22.2937 76.3667C22.8133 76.6296 23.3226 76.7322 23.8215 76.6742C24.3174 76.6067 24.7883 76.4391 25.2342 76.1713C25.6739 75.9002 26.0819 75.5893 26.4584 75.2386C26.8286 74.8846 27.1526 74.5511 27.4304 74.238L28.9633 72.5302C29.3529 72.0906 29.8221 71.6196 30.3709 71.1172C30.9228 70.6085 31.5459 70.1716 32.2401 69.8065C32.9312 69.4319 33.685 69.2164 34.5016 69.16C35.3181 69.1036 36.1827 69.3063 37.0952 69.7681C38.1472 70.3004 38.9582 71.0571 39.5284 72.0382C40.1017 73.0129 40.3726 74.1529 40.3408 75.4582C40.3123 76.7571 39.9197 78.1544 39.1628 79.6499C38.4573 81.0441 37.6214 82.1374 36.6552 82.93C35.6921 83.7162 34.6607 84.1972 33.5609 84.3729C32.4642 84.5423 31.3644 84.3957 30.2613 83.933L31.4927 81.4995C32.2599 81.8082 32.9933 81.8689 33.693 81.6817C34.3896 81.485 35.0234 81.1132 35.5946 80.5665C36.1627 80.0102 36.6423 79.3455 37.0336 78.5724C37.489 77.6725 37.7521 76.7908 37.823 75.9272C37.8875 75.0604 37.7626 74.2848 37.4483 73.6004C37.1277 72.9127 36.6125 72.3893 35.9027 72.0302C35.2563 71.7031 34.639 71.6175 34.0506 71.7735C33.4622 71.9294 32.8922 72.2379 32.3405 72.699C31.7887 73.1601 31.2446 73.6847 30.7082 74.2729L28.8116 76.322C27.6047 77.6216 26.3711 78.5097 25.111 78.9864C23.8509 79.4631 22.565 79.3696 21.2532 78.7057C20.1633 78.1541 19.3618 77.3784 18.8489 76.3786C18.3329 75.3692 18.1033 74.2501 18.16 73.0211C18.2137 71.7826 18.5548 70.5424 19.1833 69.3003C19.8183 68.0456 20.6077 67.0441 21.5515 66.2959C22.4889 65.5445 23.4885 65.0792 24.5503 64.9001C25.6152 64.7147 26.6468 64.8547 27.6451 65.3201L26.4906 67.6014Z" fill="white"/>
<path d="M44.2177 44.3198L45.7853 45.7629L40.0419 52.0019L38.4743 50.5588L44.2177 44.3198ZM37.2639 46.0852L38.9667 44.2354L50.4415 54.7987C50.964 55.2797 51.4256 55.5647 51.8264 55.6537C52.2267 55.7326 52.582 55.6928 52.8921 55.5342C53.2018 55.3656 53.4817 55.1454 53.7318 54.8737C53.9194 54.6699 54.0629 54.4931 54.1622 54.3432C54.2564 54.1885 54.3317 54.0648 54.3881 53.972L56.3961 55.1254C56.3277 55.2941 56.2136 55.5124 56.0538 55.7804C55.8992 56.0532 55.6632 56.362 55.3457 56.7069C54.8647 57.2294 54.2809 57.6381 53.5944 57.9329C52.9128 58.2225 52.1905 58.3202 51.4276 58.2261C50.6696 58.1268 49.9405 57.7548 49.2403 57.1102L37.2639 46.0852Z" fill="white"/>
<path d="M72.228 43.3878C71.3447 43.9308 70.4407 44.2572 69.5161 44.367C68.5878 44.4708 67.7166 44.3352 66.9026 43.9602C66.0848 43.5792 65.397 42.9349 64.8391 42.0273C64.3481 41.2286 64.1075 40.4845 64.1171 39.795C64.123 39.0994 64.3018 38.4476 64.6534 37.8396C65.005 37.2317 65.4557 36.6629 66.0054 36.1332C66.5575 35.5937 67.1313 35.0827 67.7266 34.6C68.5067 33.9704 69.1433 33.4666 69.6362 33.0885C70.1314 32.7007 70.4573 32.3629 70.6138 32.0749C70.7763 31.7833 70.7516 31.465 70.5396 31.1201L70.495 31.0475C69.9445 30.152 69.2717 29.6069 68.4767 29.412C67.6876 29.2134 66.8 29.4172 65.8138 30.0234C64.7912 30.652 64.1271 31.3687 63.8215 32.1734C63.5159 32.9782 63.4013 33.7073 63.4777 34.3606L60.9984 34.8842C60.8408 33.814 60.9194 32.8569 61.2344 32.013C61.5517 31.1594 62.0127 30.4175 62.6174 29.7873C63.2244 29.1474 63.8789 28.6117 64.5807 28.1803C65.0285 27.9051 65.5763 27.6434 66.2241 27.3952C66.8742 27.1373 67.572 27.0044 68.3173 26.9964C69.0688 26.9846 69.8287 27.197 70.5972 27.6333C71.3656 28.0697 72.0901 28.8415 72.7708 29.9487L78.4166 39.1335L76.2747 40.4501L75.1143 38.5623L75.0054 38.6293C75.0461 39.0211 75.0031 39.4935 74.8763 40.0467C74.7494 40.5999 74.479 41.1704 74.0651 41.7583C73.6512 42.3462 73.0388 42.8894 72.228 43.3878ZM71.372 41.2628C72.2191 40.7421 72.8308 40.1369 73.2071 39.447C73.5895 38.7535 73.7671 38.0524 73.74 37.3438C73.7189 36.6314 73.5299 35.9848 73.1728 35.4039L71.9678 33.4435C71.944 33.6082 71.8057 33.8308 71.5529 34.1113C71.3024 34.3819 70.998 34.6733 70.6396 34.9853C70.2835 35.2876 69.9327 35.5782 69.5873 35.8572C69.2443 36.1264 68.9671 36.3468 68.7558 36.5184C68.2438 36.9332 67.7959 37.371 67.4123 37.8319C67.031 38.2831 66.7907 38.7601 66.6913 39.263C66.5943 39.7562 66.7132 40.275 67.0479 40.8196C67.5054 41.5638 68.1266 41.9573 68.9115 42C69.6987 42.033 70.5189 41.7873 71.372 41.2628Z" fill="white"/>
<path d="M97.0059 32.5083C95.5297 32.9257 94.1599 32.9366 92.8967 32.541C91.6334 32.1454 90.5417 31.417 89.6217 30.356C88.7017 29.295 88.0195 27.9786 87.575 26.4067C87.1228 24.8075 87.0176 23.3131 87.2594 21.9236C87.5061 20.5253 88.0615 19.3312 88.9257 18.3414C89.7947 17.3428 90.94 16.6425 92.3615 16.2406C93.4687 15.9275 94.5245 15.8504 95.5289 16.0092C96.5333 16.168 97.4235 16.5363 98.1994 17.114C98.9754 17.6917 99.5709 18.4533 99.9858 19.3988L97.5665 20.0829C97.179 19.4175 96.5893 18.8978 95.7971 18.524C95.0099 18.1414 94.0832 18.1008 93.0171 18.4023C92.0739 18.669 91.3166 19.1488 90.7449 19.8419C90.1782 20.5262 89.8223 21.3686 89.6771 22.3691C89.5369 23.3609 89.6349 24.4514 89.9711 25.6406C90.3151 26.8571 90.806 27.8623 91.4439 28.6562C92.0885 29.4481 92.8333 29.9941 93.6783 30.2939C94.5302 30.5918 95.4345 30.6055 96.3913 30.3349C97.0201 30.1572 97.5598 29.8864 98.0105 29.5228C98.4613 29.1592 98.8064 28.7221 99.0458 28.2115C99.2852 27.701 99.3989 27.1374 99.387 26.5208L101.806 25.8367C101.932 26.8048 101.831 27.7376 101.502 28.6353C101.177 29.5241 100.636 30.3119 99.8782 30.9986C99.1251 31.6765 98.1677 32.1797 97.0059 32.5083Z" fill="white"/>
<path d="M117.903 23.0341L117.86 19.9233H118.371L125.531 12.6364H128.641L121.014 20.3494H120.8L117.903 23.0341ZM115.559 29V7.18182H118.073V29H115.559ZM125.957 29L119.565 20.9034L121.354 19.1563L129.153 29H125.957Z" fill="white"/>
<path d="M163.708 39.3123L175.134 20.725L186.352 27.6205L185.124 29.6172L176.157 24.1053L172.297 30.3857L180.683 35.5406L179.456 37.5373L171.07 32.3824L167.187 38.6992L176.299 44.3004L175.071 46.2971L163.708 39.3123Z" fill="white"/>
<path d="M193.165 49.1103L185.922 55.7773L184.219 53.9275L196.259 42.8448L197.904 44.6318L196.023 46.3635L196.167 46.5203C197.038 46.2396 197.924 46.2159 198.824 46.4492C199.729 46.6776 200.6 47.2465 201.437 48.1557C202.188 48.9708 202.677 49.838 202.905 50.7572C203.139 51.6716 203.075 52.6089 202.714 53.5691C202.357 54.5244 201.667 55.4735 200.643 56.4163L192.993 63.4585L191.29 61.6088L198.815 54.682C199.761 53.8114 200.271 52.8875 200.347 51.9105C200.428 50.9287 200.074 50.0093 199.285 49.1524C198.741 48.5619 198.127 48.152 197.443 47.9226C196.764 47.6985 196.056 47.6793 195.32 47.865C194.583 48.0506 193.865 48.4657 193.165 49.1103Z" fill="white"/>
<path d="M197.345 82.6206C196.797 81.537 196.465 80.5349 196.349 79.6143C196.227 78.697 196.26 77.8647 196.447 77.1173C196.63 76.3795 196.899 75.7303 197.252 75.1696L199.411 76.3216C199.247 76.6591 199.073 77.0697 198.888 77.5534C198.697 78.0403 198.61 78.6172 198.63 79.2841C198.646 79.9606 198.876 80.7392 199.322 81.6201C199.919 82.7988 200.696 83.6272 201.654 84.1053C202.613 84.5835 203.7 84.5147 204.917 83.899L207.883 82.3982L207.787 82.208C207.437 82.178 206.989 82.1103 206.442 82.0049C205.905 81.9027 205.341 81.6466 204.752 81.2365C204.172 80.8296 203.641 80.1508 203.16 79.2003C202.564 78.0216 202.307 76.8222 202.39 75.6021C202.476 74.3883 202.914 73.2396 203.703 72.1558C204.495 71.0784 205.651 70.1549 207.172 69.3852C208.667 68.6284 210.103 68.2324 211.478 68.1971C212.859 68.1587 214.092 68.4545 215.175 69.0845C216.264 69.7113 217.12 70.6394 217.742 71.8688C218.223 72.8193 218.446 73.6536 218.411 74.3716C218.386 75.0928 218.25 75.7033 218.001 76.2031C217.762 76.7062 217.558 77.1042 217.387 77.3972L217.503 77.6253L219.822 76.4516L220.919 78.6189L205.9 86.2193C204.645 86.8542 203.481 87.0854 202.406 86.9127C201.329 86.7496 200.364 86.2826 199.512 85.5117C198.658 84.7503 197.935 83.7866 197.345 82.6206ZM205.329 78.4846C205.785 79.3845 206.375 80.0407 207.102 80.4533C207.828 80.8659 208.659 81.0381 209.596 80.9701C210.533 80.902 211.539 80.5954 212.617 80.0502C213.669 79.5179 214.517 78.8897 215.161 78.1655C215.806 77.4414 216.199 76.6534 216.341 75.8014C216.483 74.9495 216.323 74.0673 215.861 73.1547C215.38 72.2042 214.739 71.5339 213.936 71.1439C213.137 70.7603 212.252 70.6153 211.28 70.7089C210.312 70.8089 209.334 71.109 208.345 71.6093C207.331 72.1224 206.515 72.7346 205.896 73.4459C205.286 74.1604 204.918 74.9435 204.792 75.7953C204.676 76.6503 204.855 77.5468 205.329 78.4846Z" fill="white"/>
<path d="M210.969 102.128L227.029 98.9905L227.511 101.458L211.451 104.595L210.969 102.128ZM229.951 99.7223C229.857 99.2413 229.94 98.7946 230.2 98.3821C230.46 97.9765 230.821 97.7288 231.281 97.6389C231.741 97.5491 232.168 97.6429 232.563 97.9205C232.958 98.205 233.203 98.5878 233.297 99.0687C233.391 99.5497 233.308 99.993 233.047 100.399C232.787 100.811 232.427 101.062 231.967 101.152C231.507 101.242 231.079 101.145 230.684 100.86C230.289 100.583 230.045 100.203 229.951 99.7223Z" fill="white"/>
<path d="M222.74 125.465L212.93 124.652L213.137 122.146L229.445 123.497L229.245 125.918L226.696 125.707L226.679 125.919C227.475 126.37 228.093 127.006 228.531 127.826C228.976 128.647 229.147 129.673 229.045 130.904C228.954 132.009 228.647 132.956 228.125 133.747C227.611 134.538 226.878 135.126 225.927 135.51C224.983 135.895 223.817 136.03 222.43 135.915L212.068 135.056L212.275 132.551L222.468 133.395C223.749 133.502 224.774 133.252 225.544 132.645C226.321 132.04 226.758 131.157 226.854 129.996C226.92 129.196 226.806 128.467 226.512 127.808C226.216 127.157 225.751 126.623 225.116 126.207C224.48 125.791 223.688 125.543 222.74 125.465Z" fill="white"/>
<path d="M206.606 153.543C207.158 152.067 207.961 150.915 209.014 150.088C210.071 149.27 211.296 148.793 212.69 148.655C214.088 148.526 215.572 148.755 217.142 149.343C218.712 149.931 219.988 150.735 220.971 151.755C221.958 152.785 222.595 153.941 222.881 155.223C223.171 156.515 223.057 157.852 222.539 159.236C222.24 160.034 221.812 160.772 221.254 161.451C220.697 162.129 219.999 162.676 219.162 163.09C218.331 163.507 217.355 163.722 216.236 163.735C215.116 163.748 213.841 163.487 212.411 162.952L211.413 162.578L215.836 150.765L217.871 151.527L214.345 160.946C215.21 161.269 216.046 161.385 216.854 161.294C217.659 161.208 218.377 160.923 219.006 160.438C219.632 159.96 220.105 159.295 220.424 158.444C220.775 157.506 220.846 156.607 220.637 155.748C220.432 154.898 220.029 154.151 219.427 153.509C218.826 152.867 218.103 152.388 217.258 152.071L215.901 151.563C214.744 151.13 213.688 150.962 212.734 151.06C211.784 151.167 210.965 151.501 210.277 152.062C209.595 152.626 209.077 153.384 208.721 154.335C208.489 154.954 208.366 155.545 208.352 156.108C208.343 156.681 208.446 157.216 208.661 157.714C208.884 158.215 209.223 158.664 209.681 159.063L208.19 161.098C207.509 160.57 206.981 159.914 206.607 159.129C206.24 158.347 206.049 157.479 206.035 156.526C206.027 155.575 206.217 154.581 206.606 153.543Z" fill="white"/>
<path d="M194.517 175.631C195.451 174.361 196.537 173.471 197.775 172.962C199.014 172.463 200.324 172.336 201.703 172.583C203.083 172.84 204.448 173.464 205.799 174.457C207.15 175.45 208.159 176.571 208.827 177.82C209.497 179.079 209.795 180.365 209.721 181.676C209.649 182.998 209.175 184.254 208.3 185.445C207.795 186.131 207.183 186.725 206.462 187.227C205.741 187.728 204.921 188.064 204.002 188.235C203.089 188.41 202.092 188.351 201.011 188.059C199.93 187.767 198.774 187.169 197.543 186.265L196.685 185.634L204.155 175.47L205.906 176.757L199.95 184.861C200.694 185.407 201.468 185.746 202.27 185.878C203.068 186.015 203.836 185.936 204.573 185.64C205.306 185.351 205.942 184.84 206.48 184.107C207.073 183.3 207.386 182.455 207.419 181.571C207.453 180.697 207.268 179.869 206.864 179.087C206.461 178.306 205.895 177.648 205.168 177.114L204.001 176.256C203.005 175.524 202.035 175.075 201.09 174.909C200.147 174.754 199.268 174.852 198.453 175.206C197.644 175.563 196.939 176.151 196.337 176.969C195.946 177.501 195.667 178.037 195.5 178.575C195.335 179.124 195.289 179.667 195.36 180.204C195.438 180.746 195.643 181.271 195.974 181.78L193.987 183.333C193.474 182.639 193.145 181.864 192.999 181.007C192.858 180.155 192.911 179.268 193.156 178.346C193.407 177.429 193.861 176.524 194.517 175.631Z" fill="white"/>
<path d="M180.013 191.586L190.064 204.5L188.147 205.991L186.629 204.041L186.494 204.146C186.756 204.968 186.734 205.818 186.427 206.696C186.12 207.573 185.58 208.313 184.807 208.915C184.661 209.029 184.477 209.168 184.254 209.332C184.031 209.497 183.859 209.617 183.738 209.693L182.168 207.675C182.248 207.64 182.422 207.545 182.689 207.391C182.955 207.247 183.219 207.073 183.483 206.868C184.111 206.379 184.569 205.811 184.857 205.164C185.144 204.526 185.251 203.867 185.179 203.185C185.106 202.513 184.843 201.885 184.389 201.302L178.029 193.131L180.013 191.586Z" fill="white"/>
</svg>
